<svg width="62" height="62" fill="none" xmlns="http://www.w3.org/2000/svg">
    <path d="M30.5 61.079c16.845 0 30.5-13.673 30.5-30.54C61 13.674 47.346 0 30.5 0 13.657 0 .002 13.673.002 30.54c0 16.866 13.655 30.539 30.5 30.539z"
          fill="#2E5871"/>
    <path d="M45.107 49.337C43.14 45.61 30.5 43.27 30.5 43.27s-12.64 2.34-14.606 6.066c-1.454 5.171-2.67 11.742-2.67 11.742h34.552s-.822-7.045-2.67-11.742z"
          fill="#F1C9A5"/>
    <path d="M30.5 43.272s12.64 2.338 14.607 6.065c1.848 4.697 2.669 11.742 2.669 11.742H30.5V43.272z" fill="#E4B692"/>
    <path d="M33.941 35.695H27.06v11.533h6.882V35.695z" fill="#F1C9A5"/>
    <path d="M33.941 35.695h-3.44v11.533h3.44V35.695z" fill="#E4B692"/>
    <path opacity=".1"
          d="M27.059 41.04c.619 1.778 3.117 2.798 4.951 2.798.664 0 1.31-.111 1.931-.315v-7.828H27.06v5.344z"
          fill="#DDAC8C"/>
    <path d="M45.107 49.337c-1.149-2.176-5.934-3.878-9.719-4.918a4.9 4.9 0 01-4.888 4.624 4.901 4.901 0 01-4.888-4.624c-3.785 1.04-8.57 2.742-9.719 4.918-1.453 5.171-2.669 11.742-2.669 11.742h34.551s-.82-7.045-2.668-11.742z"
          fill="#fff"/>
    <path d="M39.349 28.418c0-7.204-3.962-11.3-8.849-11.3-4.887 0-8.848 4.096-8.848 11.3 0 3.018.922 9.7 2.496 11.062 1.08.961 4.609 2.608 6.334 2.608H30.519c1.727 0 5.255-1.647 6.335-2.608 1.636-1.731 2.495-8.292 2.495-11.062z"
          fill="#F1C9A5"/>
    <path d="M30.5 42.087l.018.001c1.727 0 5.255-1.647 6.335-2.608 1.636-1.731 2.495-8.292 2.495-11.062 0-7.204-3.961-11.3-8.848-11.3v24.97z"
          fill="#E4B692"/>
    <path d="M38.001 33.413c-1.604-.168-2.686-1.898-2.415-3.863.269-1.966 1.788-3.426 3.393-3.259 1.603.168 2.684 1.897 2.413 3.863-.269 1.967-1.787 3.425-3.39 3.259z"
          fill="#E4B692"/>
    <path d="M19.67 30.155c-.27-1.966.811-3.696 2.414-3.863 1.605-.168 3.125 1.292 3.394 3.259.27 1.964-.814 3.695-2.416 3.863-1.605.165-3.123-1.293-3.391-3.26z"
          fill="#F1C9A5"/>
    <path d="M15.894 49.337c-1.454 5.171-2.67 11.742-2.67 11.742h12.547c-2.13-9.41-2.211-16.041-2.211-16.054-3.295 1.045-6.719 2.516-7.666 4.312zM45.107 49.337c1.967 4.865 2.669 11.742 2.669 11.742H35.227c2.13-9.41 2.212-16.041 2.212-16.054 3.296 1.045 6.719 2.516 7.667 4.312z"
          fill="#FB6020"/>
    <path d="M22.193 33.214s1.292 4.358 2.692 5.099h1.13l1.4-1.986 3.067-.855v6.617h-3.983l-3.983-3.581-.323-5.294zM38.789 33.214s-1.292 4.358-2.692 5.099h-1.13l-1.399-1.986-3.068-.855v6.617h3.983l3.983-3.581.323-5.294z"
          fill="#915F2C"/>
    <path d="M31.92 37.65s-.211-.939-1.44-.939c-1.124 0-1.44.94-1.44.94h2.88z" fill="#fff"/>
    <g fill="#915F2C">
        <path d="M21.666 26.312s1.172.244 1.93 1.126c-.134-1.543-.43-6.668 1.441-7.954 1.87-1.285 2.746.055 5.463.055v-3.747h-4.416c-1.151 0-4.804.551-4.804 4.004 0 3.454.386 6.516.386 6.516zM39.334 26.312s-1.172.244-1.93 1.126c.134-1.543.43-6.668-1.441-7.954-1.87-1.285-2.746.055-5.463.055v-3.747h4.416c1.152 0 4.804.551 4.804 4.004 0 3.454-.386 6.516-.386 6.516z"/>
    </g>
</svg>
